<svg width="40" height="40" viewBox="0 0 40 40" fill="none" xmlns="http://www.w3.org/2000/svg">
<path d="M32.1666 24.8333C32.8332 23.6667 33.3333 22.3333 33.3333 20.8333C33.3333 16.6667 29.9999 13.3333 25.8333 13.3333C21.6666 13.3333 18.3333 16.6667 18.3333 20.8333C18.3333 25 21.6666 28.3333 25.8333 28.3333C27.3333 28.3333 28.6666 27.8333 29.8333 27.1667L34.6666 32L36.9999 29.6667L32.1666 24.8333ZM25.8333 25C23.4999 25 21.6666 23.1667 21.6666 20.8333C21.6666 18.5 23.4999 16.6667 25.8333 16.6667C28.1666 16.6667 29.9999 18.5 29.9999 20.8333C29.9999 23.1667 28.1666 25 25.8333 25ZM24.4999 31.5C23.8333 32.1667 23.1666 32.6667 22.4999 33.3333L19.9999 35.5L17.4999 33.3333C8.99992 25.6667 3.33325 20.5 3.33325 14.1667C3.33325 9 7.33325 5 12.4999 5C15.3333 5 18.1666 6.33333 19.9999 8.5C21.8333 6.33333 24.6666 5 27.4999 5C32.6666 5 36.6666 9 36.6666 14.1667C36.6666 15.3333 36.4999 16.3333 36.1666 17.5C34.6666 13.1667 30.6666 10 25.8333 10C19.8333 10 14.9999 14.8333 14.9999 20.8333C14.9999 26.3333 19.1666 30.8333 24.4999 31.5Z" fill="#AAAAAA"/>
</svg>
